<?xml version="1.0" encoding="UTF-8"?>
<svg id="Calque_2" data-name="Calque 2" xmlns="http://www.w3.org/2000/svg" xmlns:xlink="http://www.w3.org/1999/xlink" viewBox="0 0 107.05 121.94">
  <defs>
    <style>
      .cls-1 {
        fill: #2a3159;
        stroke-width: 0px;
      }

      .cls-2 {
        stroke-width: 19.89px;
      }

      .cls-2, .cls-3, .cls-4 {
        stroke-linecap: round;
        stroke-linejoin: round;
      }

      .cls-2, .cls-3, .cls-5 {
        stroke: #fff;
      }

      .cls-2, .cls-5 {
        fill: #fff;
      }

      .cls-6 {
        filter: url(#drop-shadow-1);
      }

      .cls-3, .cls-4 {
        fill: none;
        stroke-width: 7.65px;
      }

      .cls-4 {
        stroke: #ed7d1a;
      }

      .cls-5 {
        stroke-miterlimit: 10;
        stroke-width: 12.24px;
      }
    </style>
    <filter id="drop-shadow-1" filterUnits="userSpaceOnUse">
      <feOffset dx="1.42" dy="1.42"/>
      <feGaussianBlur result="blur" stdDeviation="4.25"/>
      <feFlood flood-color="#000" flood-opacity=".31"/>
      <feComposite in2="blur" operator="in"/>
      <feComposite in="SourceGraphic"/>
    </filter>
  </defs>
  <g id="Calque_3" data-name="Calque 3">
    <g class="cls-6">
      <g>
        <line class="cls-2" x1="53.31" y1="19.97" x2="53.31" y2="9.95"/>
        <line class="cls-2" x1="9.95" y1="53.96" x2="19.97" y2="53.96"/>
        <line class="cls-2" x1="87.08" y1="53.96" x2="97.1" y2="53.96"/>
        <line class="cls-2" x1="22.71" y1="84.77" x2="29.8" y2="77.69"/>
        <line class="cls-2" x1="77.25" y1="30.23" x2="84.34" y2="23.15"/>
        <line class="cls-2" x1="22.71" y1="23.15" x2="29.8" y2="30.23"/>
        <line class="cls-2" x1="77.25" y1="77.69" x2="84.34" y2="84.77"/>
      </g>
      <g>
        <line class="cls-4" x1="53.31" y1="19.97" x2="53.31" y2="9.95"/>
        <line class="cls-4" x1="9.95" y1="53.96" x2="19.97" y2="53.96"/>
        <line class="cls-4" x1="87.08" y1="53.96" x2="97.1" y2="53.96"/>
        <line class="cls-4" x1="22.71" y1="84.77" x2="29.8" y2="77.69"/>
        <line class="cls-4" x1="77.25" y1="30.23" x2="84.34" y2="23.15"/>
        <line class="cls-4" x1="22.71" y1="23.15" x2="29.8" y2="30.23"/>
        <line class="cls-4" x1="77.25" y1="77.69" x2="84.34" y2="84.77"/>
      </g>
      <path class="cls-5" d="M53.35,25.55c-15.77,0-28.15,12.78-28.15,28.56v.23s0,7.83,3.68,13.59c1.76,2.75,3.88,5.49,5.62,7.61,2.18,2.66,3.36,5.99,3.36,9.43v14.16c0,5.02,4.07,9.09,9.09,9.09v3.11c0,2.48,2.01,4.49,4.49,4.49h3.34c2.48,0,4.49-2.01,4.49-4.49v-3.11h.46c5.02,0,9.09-4.07,9.09-9.09v-14.16c0-3.44,1.17-6.77,3.36-9.43,1.74-2.12,3.87-4.87,5.62-7.61,3.68-5.76,3.68-13.59,3.68-13.59v-.23c0-15.77-12.38-28.56-28.15-28.56Z"/>
      <path class="cls-1" d="M53.35,25.55c-15.77,0-28.15,12.78-28.15,28.56v.23s0,7.83,3.68,13.59c1.76,2.75,3.88,5.49,5.62,7.61,2.18,2.66,3.36,5.99,3.36,9.43v14.16c0,5.02,4.07,9.09,9.09,9.09v3.11c0,2.48,2.01,4.49,4.49,4.49h3.34c2.48,0,4.49-2.01,4.49-4.49v-3.11h.46c5.02,0,9.09-4.07,9.09-9.09v-14.16c0-3.44,1.17-6.77,3.36-9.43,1.74-2.12,3.87-4.87,5.62-7.61,3.68-5.76,3.68-13.59,3.68-13.59v-.23c0-15.77-12.38-28.56-28.15-28.56Z"/>
      <line class="cls-3" x1="35.99" y1="92.79" x2="71.09" y2="92.79"/>
    </g>
  </g>
</svg>