<?xml version="1.0" encoding="UTF-8"?>
<svg id="Calque_2" data-name="Calque 2" xmlns="http://www.w3.org/2000/svg" xmlns:xlink="http://www.w3.org/1999/xlink" viewBox="0 0 108.65 108.71">
  <defs>
    <style>
      .cls-1 {
        fill: #ed7d1a;
        stroke-width: 0px;
      }

      .cls-2 {
        filter: url(#drop-shadow-1);
      }

      .cls-3 {
        stroke-linecap: square;
        stroke-width: 10.42px;
      }

      .cls-3, .cls-4 {
        fill: #fff;
        stroke: #fff;
        stroke-linejoin: round;
      }

      .cls-4 {
        stroke-linecap: round;
        stroke-width: 16.38px;
      }

      .cls-5 {
        fill: none;
        stroke: #2a3159;
        stroke-miterlimit: 10;
        stroke-width: 7.44px;
      }
    </style>
    <filter id="drop-shadow-1" filterUnits="userSpaceOnUse">
      <feOffset dx="1.42" dy="1.42"/>
      <feGaussianBlur result="blur" stdDeviation="4.25"/>
      <feFlood flood-color="#000" flood-opacity=".31"/>
      <feComposite in2="blur" operator="in"/>
      <feComposite in="SourceGraphic"/>
    </filter>
  </defs>
  <g id="Calque_3" data-name="Calque 3">
    <g class="cls-2">
      <circle class="cls-4" cx="49.59" cy="59.12" r="41.41"/>
      <circle class="cls-5" cx="49.59" cy="59.12" r="40.2"/>
      <circle class="cls-5" cx="49.59" cy="59.12" r="14.14"/>
      <circle class="cls-5" cx="49.59" cy="59.12" r="27.55"/>
      <polygon class="cls-3" points="84.06 38.18 103.44 18.8 89.64 19 82.91 25.73 82.91 25.73 89.62 19.02 89.82 5.21 70.44 24.59 70.33 32.02 52.92 49.43 47.71 41.01 47.71 60.99 67.69 60.99 59.23 55.76 76.69 38.29 84.06 38.18"/>
      <polygon class="cls-1" points="84.06 38.18 103.44 18.8 89.64 19 82.91 25.73 82.91 25.73 89.62 19.02 89.82 5.21 70.44 24.59 70.33 32.02 52.92 49.43 47.71 41.01 47.71 60.99 67.69 60.99 59.23 55.76 76.69 38.29 84.06 38.18"/>
    </g>
  </g>
</svg>