<?xml version="1.0" encoding="utf-8"?>
<!-- Generator: Adobe Illustrator 27.8.0, SVG Export Plug-In . SVG Version: 6.00 Build 0)  -->
<svg version="1.1" id="Calque_1" xmlns="http://www.w3.org/2000/svg" xmlns:xlink="http://www.w3.org/1999/xlink" x="0px" y="0px"
	 viewBox="0 0 595.3 595.3" style="enable-background:new 0 0 595.3 595.3;" xml:space="preserve">
<style type="text/css">
	.st0{fill:#FFFFFF;}
	.st1{fill:#ED7D1A;stroke:#ED7D1A;stroke-width:20.4047;stroke-linejoin:round;stroke-miterlimit:10;}
	.st2{fill:#2A3159;}
</style>
<g>
	<g>
		<path class="st0" d="M136.3,356.8c0.8,2.1,0.5,2.9-0.6,4.3l-31,38.3c-0.2,0.3,0.1,0.5,0.3,0.4l39.9-15.6c1.2-0.5,2-0.1,2.5,1.2
			l3.1,7.9c0.5,1.2,0.3,2.1-1,2.6l-63.4,24.8c-1.7,0.7-2.6-0.1-3.1-1.4l-2.2-5.6c-0.7-1.7-0.9-2.6,0.3-4l30.1-37.4
			c0.5-0.6,0.3-1.1-0.6-0.8L72,386.4c-1.1,0.4-1.8-0.1-2.3-1.5l-3.1-7.9c-0.5-1.3-0.4-2.2,0.7-2.7l63.2-24.7
			c1.7-0.7,2.9-0.4,3.6,1.5L136.3,356.8z"/>
		<path class="st0" d="M137.8,474.3c0.7,0.8,0.7,1.9-0.3,2.7l-5.9,5c-1.1,0.9-2,0.9-2.8-0.1l-25.6-30.4c-0.8-1-0.8-2.1,0.2-2.9
			l52.2-44c1-0.8,2.1-0.7,2.9,0.3l25.1,29.8c0.7,0.8,0.9,1.8-0.1,2.7l-5.8,4.9c-1,0.8-2.1,0.8-2.8-0.1l-16.8-20
			c-1-1.2-1.6-1.1-2.4-0.5l-10.7,9.1c-1.2,1-1.2,1.6-0.3,2.7l13.9,16.5c0.9,1.1,0.7,1.9-0.4,2.8l-5.7,4.8c-1,0.8-1.8,0.9-2.7-0.1
			l-14-16.6c-0.9-1.1-1.6-1-2.5-0.2l-12.4,10.4c-1.1,0.9-1,1.6,0,2.7L137.8,474.3z"/>
		<path class="st0" d="M187.9,522.7c-0.3,0.8-1.1,2.2-2.8,1.1l-7.9-5.3c-1-0.7-1.4-1.5-1.1-2.6l4.3-11.2c0.4-1.2,0.4-1.7-0.4-2.2
			l-14.4-9.7c-1.1-0.7-1.5-0.1-2.2,0.4c-1.7,1.7-7,6.7-8.8,8.3c-0.8,0.7-1.9,0.5-2.7,0l-7.5-5c-1.8-1.2-1.4-2.2-0.3-3.1l52.3-47.2
			c0.9-0.7,1.8-0.8,3,0l11.1,7.4c0.9,0.6,1.7,1.1,1,2.5L187.9,522.7z M191.2,475.7l5.2-12.8c0.2-0.6-0.2-1-0.7-0.5l-9.6,9.5
			l-12.4,11.9c-0.6,0.6-0.7,0.8,0.1,1.3L184,492c0.6,0.4,1,0.4,1.2-0.6L191.2,475.7z"/>
		<path class="st0" d="M266,488.3l-13.2-4.1c-1.3-0.4-2,0-2.2,0.9l-17,54.7c-0.4,1.3-1.2,1.6-2.6,1.2l-8.6-2.7
			c-1.2-0.4-1.9-1.1-1.5-2.3l17-54.7c0.3-1,0.3-1.6-1.2-2.1l-12.5-3.9c-1.3-0.4-1.7-1.1-1.3-2.6l2.2-7.2c0.4-1.2,1.1-1.7,2.5-1.3
			l41.9,12.9c1.1,0.3,1.5,1.2,1.1,2.3l-2.2,7.3C268,488.1,267.4,488.8,266,488.3z"/>
		<path class="st0" d="M274.7,529.9l0.6-32.4c0.2-12.5,10-20.7,23.1-20.4c8.1,0.2,15.8,2.5,21.5,11.1c0.7,0.9,0.8,2.1-0.6,3
			l-6.4,4.7c-1.3,0.7-2.6,0.1-3.1-1c-2.5-3.8-6.5-6-11-6.1c-6.6-0.1-10,4.3-10.1,9.4l-0.6,32c-0.1,4.9,3.3,9.1,9.9,9.2
			c4.3,0.1,8.4-2.3,11-5.3c0.8-0.8,1.6-2.1,3.1-1.1l6.9,4.5c1,0.6,1.5,1.8,0.9,2.8c-5.5,8.1-13.6,11.1-22.4,11
			C283.7,550.9,274.5,542.7,274.7,529.9z"/>
		<path class="st0" d="M350.8,469.5c13.4-4.3,23.7,0.6,27.7,13.2c2.5,7.8,0,16.2-3.6,22.6c-0.3,0.8-0.2,1.2,0.3,1.7
			c0.2,0.2,9.6,10.6,19.9,21.6c1.2,1.2,0.7,2.5-0.8,3l-8.5,2.7c-3,1-3.9,0.1-5-1.1l-17.6-19.8c-0.3-0.5-0.9-0.8-1.8-0.5l-7.4,2.3
			c-0.7,0.2-0.9,0.7-0.6,1.5l7.5,23.6c0.4,1.3-0.2,2-1.6,2.5l-8.5,2.7c-1.2,0.4-2.2,0.2-2.5-1l-20.8-65.3c-0.4-1.2-0.2-2,1.2-2.5
			L350.8,469.5z M361.7,500.5c0.7-0.2,1.7-0.9,2-1.4c2.7-3.9,3-8.8,2.1-11.6c-1.7-5.5-6.1-8.6-12.6-6.6l-8.6,2.7
			c-1.3,0.4-1.5,1-1.1,2.2l5.4,17c0.3,1,0.7,1.5,2.1,1.1L361.7,500.5z"/>
		<path class="st0" d="M454,490.9c0.7,0.5,1.7,1.8,0,3l-7.8,5.4c-1,0.7-1.9,0.8-2.8,0.1l-8.9-8.1c-1-0.8-1.4-1-2.2-0.5l-14.2,9.9
			c-1.1,0.7-0.7,1.3-0.5,2.2c1,2.2,3.7,9,4.5,11.3c0.4,1-0.2,2-1,2.5l-7.4,5.1c-1.8,1.3-2.5,0.5-3-0.8l-24.9-65.9
			c-0.3-1.1-0.1-1.9,1.1-2.8l11-7.6c0.9-0.6,1.6-1.1,2.7,0L454,490.9z M411.4,470.6l-10-9.5c-0.4-0.4-1-0.2-0.7,0.5l5.3,12.4
			l6.6,15.8c0.4,0.7,0.5,0.9,1.3,0.4l10-6.9c0.6-0.4,0.7-0.8-0.1-1.4L411.4,470.6z"/>
		<path class="st0" d="M478.2,464.9c1.1,0.9,1.2,1.9,0.3,3l-5.7,7c-0.8,1-1.9,1.2-2.9,0.4l-53-43.1c-1-0.8-1.1-1.8-0.2-2.9l24.4-30
			c0.7-0.8,1.5-1.2,2.6-0.3l5.9,4.8c1,0.8,1.2,1.9,0.5,2.8l-16.3,20.1c-0.8,1-0.6,1.6,0.1,2.2l11.4,9.2c1,0.8,1.4,0.9,2.2-0.1
			l13.5-16.6c0.9-1.1,1.7-1,2.8-0.1l5.9,4.8c1,0.8,1.3,1.7,0.5,2.8l-13.5,16.5c-0.8,1-0.7,1.6,0.5,2.5L478.2,464.9z"/>
		<path class="st0" d="M472.9,351.3l-4.7,13c-0.5,1.3-0.1,2,0.8,2.3l53.9,19.5c1.3,0.5,1.5,1.3,1,2.6l-3.1,8.5
			c-0.4,1.2-1.2,1.8-2.4,1.4l-53.9-19.5c-1-0.4-1.6-0.3-2.1,1.1l-4.5,12.3c-0.5,1.3-1.2,1.7-2.7,1.2l-7.1-2.5
			c-1.2-0.4-1.7-1.2-1.2-2.5l14.9-41.2c0.4-1.1,1.3-1.4,2.4-1l7.2,2.6C472.7,349.3,473.4,350,472.9,351.3z"/>
	</g>
	<path class="st1" d="M476.7,27.4c-1.2-1.5-3.6-0.3-3,1.5c3.2,10.4,6.9,29.8-0.3,51.6c-12.2,37-38.4,46.5-38.4,46.5
		c22.4-63.3-9.9-94.1-24.9-104.4c-1.5-1.1-3.4,0.8-2.4,2.3c5.5,8.8,14.3,25.9,16.2,48.5C408.3,55.1,391,50.2,381.6,49
		c-1.8-0.2-2.7,2.2-1.1,3.2c28.2,17.7,39.2,39.5,42.3,46.9c-5,28.7-21.9,39.8-39.2,47.9c-18.7,8.8-35.9,20.7-36.2,20.9
		c0.2-0.2,4-3.3,13.1-34.5c6.5-22.2-0.2-40-5-48.9c-0.9-1.6-3.4-0.9-3.2,0.9c0.3,5.6,0.4,14.4-0.8,26.5
		c-2.2,22.5-13.9,30.3-21.4,47.1c-5.2,11.5-6.3,20.5-6.5,25.1c-6.6-0.5-12.2,0.4-14.6,1.5c-5.4,2.4-9.8,2.7-11.3,2.8
		c-1.2,0-4.7-0.4-10.1-2.8c-2.3-1-8-2-14.6-1.5c-0.2-4.6-1.3-13.7-6.5-25.1c-7.6-16.8-19.2-24.6-21.4-47.1
		c-1.2-12.1-1.1-20.9-0.8-26.5c0.1-1.9-2.4-2.6-3.2-0.9c-4.8,8.9-11.5,26.7-5,48.9c9.1,31.3,12.9,34.4,13.1,34.5
		c-0.3-0.2-17.5-12.1-36.2-20.9c-17.4-8.2-34.3-19.2-39.2-47.9c3.1-7.5,14.1-29.2,42.3-46.9c1.6-1,0.7-3.4-1.1-3.2
		c-9.5,1.3-26.8,6.2-42.3,24.5c1.8-22.6,10.6-39.7,16.2-48.5c1-1.6-0.9-3.4-2.4-2.3c-15.1,10.4-47.3,41.1-24.9,104.4
		c0,0-26.2-9.5-38.4-46.5c-7.2-21.8-3.5-41.2-0.3-51.6c0.6-1.8-1.9-3.1-3-1.5c-7.7,10.2-18.8,32.9-8.3,71.6
		c10.9,40.3,63.2,56,73.5,59.7c9.6,3.4,50.2,18.6,63.5,36c-0.5,0.5-1,1-1.4,1.4c-0.1,0-0.1,0-0.2,0c0,0,0.1,0.1,0.1,0.1
		c-2.4,2.7-3.6,5.8-4.9,9.4l-0.1,0.1c-2.7-2.9-10.6-14.8-18.2-20.3c-12-8.6-39-15.1-56.3-19c0,0-3,22.2,12.1,45.8
		c15.1,23.6,30.2,20.7,44,25.5c8.2,2.8,14.1,7.9,18.1,13.9c0.5,7,0.7,19.9-2,36.6c-9.6,60.2-25.8,82.9-12.2,113.1
		c13,29,66.3,50.7,70.7,53.3v0c4.4-2.5,57.7-24.3,70.7-53.3c13.6-30.2-2.7-52.9-12.2-113.1c-2.7-16.8-2.5-29.6-2-36.6
		c4-6,9.9-11.1,18.1-13.9c13.8-4.7,28.9-1.9,44-25.5c15.1-23.6,12.1-45.8,12.1-45.8c-17.3,3.9-44.3,10.4-56.3,19
		c-7.6,5.5-15.5,17.3-18.2,20.2c-1.5-4.3-3-7.8-6.4-10.9c13.3-17.4,53.9-32.6,63.5-36c10.3-3.7,62.6-19.4,73.5-59.7
		C495.5,60.3,484.4,37.6,476.7,27.4z"/>
	<g>
		<path class="st0" d="M355,310.3c-6-17.2-7.9-48.2-3.7-61.7c4.2-13.5,1.9-48.2-23.2-47.8c-12.7,0.2-23,3.2-30.1,6.1
			c-7.1-2.9-17.4-5.9-30.1-6.1c-25.1-0.5-27.4,34.3-23.2,47.8c4.2,13.5,2.3,44.5-3.7,61.7c-6,17.2-13.5,55.2-1.9,84.4
			c11.1,28.1,55.4,48.9,58.8,50.5l0,0.1c0,0,0.1,0,0.1-0.1c0.1,0,0.1,0.1,0.1,0.1l0-0.1c3.4-1.6,47.6-22.4,58.8-50.5
			C368.5,365.5,361.1,327.5,355,310.3z"/>
		<path class="st2" d="M476.7,27.4c-1.2-1.5-3.6-0.3-3,1.5c3.2,10.4,6.9,29.8-0.3,51.6c-12.2,37-38.4,46.5-38.4,46.5
			c22.4-63.3-9.9-94.1-24.9-104.4c-1.5-1.1-3.4,0.8-2.4,2.3c5.5,8.8,14.3,25.9,16.2,48.5C408.3,55.1,391,50.2,381.6,49
			c-1.8-0.2-2.7,2.2-1.1,3.2c28.2,17.7,39.2,39.5,42.3,46.9c-5,28.7-21.9,39.8-39.2,47.9c-18.7,8.8-35.9,20.7-36.2,20.9
			c0.2-0.2,4-3.3,13.1-34.5c6.5-22.2-0.2-40-5-48.9c-0.9-1.6-3.4-0.9-3.2,0.9c0.3,5.6,0.4,14.4-0.8,26.5
			c-2.2,22.5-13.9,30.3-21.4,47.1c-5.2,11.5-6.3,20.5-6.5,25.1c-6.6-0.5-12.2,0.4-14.6,1.5c-5.4,2.4-9.8,2.7-11.3,2.8
			c-1.2,0-4.7-0.4-10.1-2.8c-2.3-1-8-2-14.6-1.5c-0.2-4.6-1.3-13.7-6.5-25.1c-7.6-16.8-19.2-24.6-21.4-47.1
			c-1.2-12.1-1.1-20.9-0.8-26.5c0.1-1.9-2.4-2.6-3.2-0.9c-4.8,8.9-11.5,26.7-5,48.9c9.1,31.3,12.9,34.4,13.1,34.5
			c-0.3-0.2-17.5-12.1-36.2-20.9c-17.4-8.2-34.3-19.2-39.2-47.9c3.1-7.5,14.1-29.2,42.3-46.9c1.6-1,0.7-3.4-1.1-3.2
			c-9.5,1.3-26.8,6.2-42.3,24.5c1.8-22.6,10.6-39.7,16.2-48.5c1-1.6-0.9-3.4-2.4-2.3c-15.1,10.4-47.3,41.1-24.9,104.4
			c0,0-26.2-9.5-38.4-46.5c-7.2-21.8-3.5-41.2-0.3-51.6c0.6-1.8-1.9-3.1-3-1.5c-7.7,10.2-18.8,32.9-8.3,71.6
			c10.9,40.3,63.2,56,73.5,59.7c9.6,3.4,50.2,18.6,63.5,36c-0.5,0.5-1,1-1.4,1.4c-0.1,0-0.1,0-0.2,0c0,0,0.1,0.1,0.1,0.1
			c-2.4,2.7-3.6,5.8-4.9,9.4l-0.1,0.1c-2.7-2.9-10.6-14.8-18.2-20.3c-12-8.6-39-15.1-56.3-19c0,0-3,22.2,12.1,45.8
			c15.1,23.6,30.2,20.7,44,25.5c8.2,2.8,14.1,7.9,18.1,13.9c0.5,7,0.7,19.9-2,36.6c-9.6,60.2-25.8,82.9-12.2,113.1
			c13,29,66.3,50.7,70.7,53.3v0c4.4-2.5,57.7-24.3,70.7-53.3c13.6-30.2-2.7-52.9-12.2-113.1c-2.7-16.8-2.5-29.6-2-36.6
			c4-6,9.9-11.1,18.1-13.9c13.8-4.7,28.9-1.9,44-25.5c15.1-23.6,12.1-45.8,12.1-45.8c-17.3,3.9-44.3,10.4-56.3,19
			c-7.6,5.5-15.5,17.3-18.2,20.2c-1.5-4.3-3-7.8-6.4-10.9c13.3-17.4,53.9-32.6,63.5-36c10.3-3.7,62.6-19.4,73.5-59.7
			C495.5,60.3,484.4,37.6,476.7,27.4z M315.4,238.1c-1,13.5,4.6,18.7,4.6,18.7c0-9,9-16.3,9-16.3s1,0.6,6.8,0.4
			c7.1-0.1,13.1-4.3,13.1-4.3c0.8,6.6-1.4,17.2-6.2,25.8c-3.2,5.6-10.5,12.8-13,24.1c-2.2,9.9-7.6,15.6-7.6,15.6
			c-3.2-9-14.8-11.2-18.4-11.7c0,0,10-8.8,11.8-11.8c2.6-4.4,4-8.6-1.9-14.1c-4.1-3.8-11.7-4.3-15.1-4.3c-2.6-0.1-11.4,0.1-16,4.3
			c-5.9,5.5-4.6,9.7-1.9,14.1c1.8,3,11.8,11.8,11.8,11.8c-3.6,0.5-15.2,2.7-18.4,11.7c0,0-5.4-5.7-7.6-15.6
			c-2.5-11.3-9.8-18.5-13-24.1c-4.8-8.5-7-19.2-6.2-25.8c0,0,5.9,4.2,13.1,4.3c5.8,0.1,6.8-0.4,6.8-0.4s9,7.3,9,16.3
			c0,0,5.6-5.2,4.6-18.7c-1-13.5-14.7-17.5-14.7-17.5s6.8,7.6,6.7,15.1c0,0-12.7-19.3-26.4-7c0-0.7,0-1.3,0.1-1.9
			c0.4-4.2,3-13.7,17.3-14.7c19-1.3,34.4,28.5,34.4,28.5s15.4-29.8,34.4-28.5c14.2,1,16.8,10.5,17.3,14.7c0,0.6,0.1,1.3,0.1,1.9
			c-13.6-12.3-26.4,7-26.4,7c-0.1-7.6,6.7-15.1,6.7-15.1S316.5,224.6,315.4,238.1z M310.6,313.6c-4,4-9,4.6-11.5,4.7l-0.5,0
			c0,0-0.1,0-0.2,0c-0.5,0-0.7,0-0.7,0l-1.2,0c-2.6-0.2-7.2-1.1-10.8-4.7c-5.4-5.4-4.9-8.2-2.6-10.5c2.3-2.2,8.6-5,15.3-5.2
			c6.5,0.3,12.5,3,14.8,5.1C315.4,305.4,315.9,308.2,310.6,313.6z M243.6,383c-11.4-29.1,5.7-74.4,5.7-74.4s1.4,4.1,2.9,7.6
			c1.5,3.4,4.8,9,4.8,9s-2.6,55.4,17.5,86.9C274.5,412.1,255,412.1,243.6,383z M298.1,413.6c-28.2-24-31-79.5-31-79.5
			s3.1,4.2,5.3,5.9c2.2,1.7,5.6,4.2,5.6,4.2c5.3,33.9,20.2,43.8,20.2,43.8s14.9-9.7,20.2-43.6c0,0,3.4-2.5,5.6-4.2
			c2.2-1.7,5.3-5.9,5.3-5.9S326.3,389.7,298.1,413.6z M352.6,383.2c-11.4,29.1-30.9,29.1-30.9,29.1c20.1-31.5,17.5-86.9,17.5-86.9
			s3.3-5.5,4.8-9c1.5-3.4,2.9-7.6,2.9-7.6S364.1,354.1,352.6,383.2z"/>
	</g>
</g>
</svg>
