<?xml version="1.0" encoding="UTF-8"?>
<svg id="Calque_2" xmlns="http://www.w3.org/2000/svg" viewBox="0 0 69.95 79.68">
  <defs>
    <style>
      .cls-1 {
        stroke: #ed7d1a;
      }

      .cls-1, .cls-2, .cls-3 {
        stroke-linecap: round;
        stroke-linejoin: round;
      }

      .cls-1, .cls-3 {
        fill: none;
        stroke-width: 5px;
      }

      .cls-2 {
        stroke-width: 13px;
      }

      .cls-2, .cls-3, .cls-4 {
        stroke: #fff;
      }

      .cls-2, .cls-4 {
        fill: #fff;
      }

      .cls-5 {
        fill: #2a3159;
      }

      .cls-4 {
        stroke-miterlimit: 10;
        stroke-width: 8px;
      }
    </style>
  </defs>
  <g id="Calque_3">
    <g>
      <g>
        <line class="cls-2" x1="34.83" y1="13.05" x2="34.83" y2="6.5"/>
        <line class="cls-2" x1="6.5" y1="35.26" x2="13.05" y2="35.26"/>
        <line class="cls-2" x1="56.9" y1="35.26" x2="63.45" y2="35.26"/>
        <line class="cls-2" x1="14.84" y1="55.39" x2="19.47" y2="50.76"/>
        <line class="cls-2" x1="50.48" y1="19.76" x2="55.11" y2="15.12"/>
        <line class="cls-2" x1="14.84" y1="15.12" x2="19.47" y2="19.76"/>
        <line class="cls-2" x1="50.48" y1="50.76" x2="55.11" y2="55.39"/>
      </g>
      <g>
        <line class="cls-1" x1="34.83" y1="13.05" x2="34.83" y2="6.5"/>
        <line class="cls-1" x1="6.5" y1="35.26" x2="13.05" y2="35.26"/>
        <line class="cls-1" x1="56.9" y1="35.26" x2="63.45" y2="35.26"/>
        <line class="cls-1" x1="14.84" y1="55.39" x2="19.47" y2="50.76"/>
        <line class="cls-1" x1="50.48" y1="19.76" x2="55.11" y2="15.12"/>
        <line class="cls-1" x1="14.84" y1="15.12" x2="19.47" y2="19.76"/>
        <line class="cls-1" x1="50.48" y1="50.76" x2="55.11" y2="55.39"/>
      </g>
      <path class="cls-4" d="M34.86,16.69c-10.31,0-18.4,8.35-18.4,18.66v.15s0,5.12,2.41,8.88c1.15,1.79,2.54,3.59,3.67,4.98,1.43,1.74,2.19,3.92,2.19,6.17v9.25c0,3.28,2.66,5.94,5.94,5.94v2.03c0,1.62,1.31,2.93,2.93,2.93h2.19c1.62,0,2.93-1.31,2.93-2.93v-2.03h.3c3.28,0,5.94-2.66,5.94-5.94v-9.25c0-2.25.77-4.43,2.19-6.17,1.14-1.39,2.53-3.18,3.67-4.98,2.41-3.76,2.41-8.88,2.41-8.88v-.15c0-10.31-8.09-18.66-18.4-18.66Z"/>
      <path class="cls-5" d="M34.86,16.69c-10.31,0-18.4,8.35-18.4,18.66v.15s0,5.12,2.41,8.88c1.15,1.79,2.54,3.59,3.67,4.98,1.43,1.74,2.19,3.92,2.19,6.17v9.25c0,3.28,2.66,5.94,5.94,5.94v2.03c0,1.62,1.31,2.93,2.93,2.93h2.19c1.62,0,2.93-1.31,2.93-2.93v-2.03h.3c3.28,0,5.94-2.66,5.94-5.94v-9.25c0-2.25.77-4.43,2.19-6.17,1.14-1.39,2.53-3.18,3.67-4.98,2.41-3.76,2.41-8.88,2.41-8.88v-.15c0-10.31-8.09-18.66-18.4-18.66Z"/>
      <line class="cls-3" x1="23.52" y1="60.63" x2="46.45" y2="60.63"/>
    </g>
  </g>
</svg>