<?xml version="1.0" encoding="UTF-8"?>
<svg id="Calque_2" xmlns="http://www.w3.org/2000/svg" viewBox="0 0 122.86 82.52">
  <defs>
    <style>
      .cls-1 {
        fill: #fff;
        stroke: #fff;
        stroke-miterlimit: 10;
        stroke-width: 3px;
      }

      .cls-2 {
        fill: #ed7d1a;
      }

      .cls-3 {
        fill: #2a3159;
      }
    </style>
  </defs>
  <g id="Calque_3">
    <g>
      <g>
        <path class="cls-1" d="M61.43,1.5C28.38,1.5,1.5,28.38,1.5,61.43v1.06c0,2.95,2.4,5.35,5.35,5.35h36.59c2.07,7.59,9.01,13.19,17.24,13.19s15.2-5.54,17.25-13.19h38.06c2.95,0,5.35-2.4,5.35-5.35v-1.06C121.36,28.38,94.47,1.5,61.43,1.5Z"/>
        <g>
          <path class="cls-3" d="M109.1,34.26c-9.32-16.75-27.19-28.08-47.71-28.08C31.25,6.17,6.82,30.6,6.82,60.74c0,.68.12,2.04,1.76,2.04,1.91,0,1.79-1.91,1.79-2.13.36-20.84,17.36-37.63,38.29-37.63,14.85,0,27.71,8.45,34.06,20.8,4.88-1.69,17.83-6.43,26.37-9.57Z"/>
          <path class="cls-3" d="M86.57,55.83c.26,1.79.4,3.63.4,5.49,0,1.58,1.52,1.46,1.52,1.46h25.67c1.7,0,1.8-1.36,1.8-2.04,0-7.98-1.73-15.55-4.8-22.38l-24.6,17.46Z"/>
        </g>
      </g>
      <path class="cls-2" d="M101.53,41.05l-33.62,12.53c-2.01-1.52-4.5-2.43-7.22-2.43-6.62,0-11.99,5.37-11.99,11.99s5.37,11.99,11.99,11.99,11.99-5.37,11.99-11.99c0-.32-.02-.64-.05-.96l28.9-21.13Z"/>
    </g>
  </g>
</svg>