<?xml version="1.0" encoding="UTF-8"?>
<svg id="Calque_2" xmlns="http://www.w3.org/2000/svg" viewBox="0 0 130.04 121.78">
  <defs>
    <style>
      .cls-1 {
        stroke-width: 11px;
      }

      .cls-1, .cls-2, .cls-3 {
        stroke: #fff;
        stroke-linecap: round;
        stroke-linejoin: round;
      }

      .cls-1, .cls-2, .cls-3, .cls-4 {
        fill: #fff;
      }

      .cls-2 {
        stroke-width: 10.02px;
      }

      .cls-3 {
        stroke-width: 12px;
      }

      .cls-5 {
        fill: #ed7d1a;
      }

      .cls-6 {
        fill: #2a3159;
      }
    </style>
  </defs>
  <g id="Calque_3">
    <g>
      <path class="cls-4" d="M11.08,73.76c0-.48,18.1-52.41,18.1-52.41h71.93l16.84,51.93-106.87.48Z"/>
      <path class="cls-3" d="M104.99,17.88h-33.26c-.8-1.73-2.2-3.13-3.96-3.87l-.16-5.18c-.05-1.58-1.34-2.83-2.92-2.83s-2.87,1.26-2.92,2.83l-.15,5.25c-1.69.76-3.04,2.11-3.81,3.79H24.54c-1.89,0-3.42,1.53-3.42,3.42s1.53,3.42,3.42,3.42h33.52c.72,1.32,1.82,2.4,3.15,3.1l-2.33,79.22c-12.5,1.77-17.18,8.72-17.18,8.72h46.11s-4.6-7.01-17.18-8.74l-2.44-79.14c1.39-.7,2.53-1.81,3.27-3.17h33.52c1.89,0,3.42-1.53,3.42-3.42s-1.53-3.42-3.42-3.42Z"/>
      <g>
        <g>
          <path class="cls-1" d="M51.61,72.5H5.5s5.98,16.05,22.98,16.05,23.14-16.05,23.14-16.05Z"/>
          <path class="cls-2" d="M46.5,76.45c-.9,0-1.74-.57-2.04-1.47l-15.52-46.55-16.55,45.77c-.4,1.12-1.63,1.7-2.75,1.29-1.11-.4-1.69-1.63-1.29-2.75L27.01,21.17c.31-.86,1.15-1.38,2.05-1.42.91.01,1.72.6,2.01,1.47l17.47,52.41c.38,1.12-.23,2.34-1.36,2.71-.22.08-.45.11-.68.11Z"/>
        </g>
        <g>
          <path class="cls-3" d="M124.04,72.5h-46.11s5.98,16.05,22.98,16.05,23.14-16.05,23.14-16.05Z"/>
          <path class="cls-2" d="M118.92,76.45c-.9,0-1.74-.57-2.04-1.47l-15.52-46.55-16.55,45.77c-.4,1.12-1.63,1.7-2.75,1.29-1.11-.4-1.69-1.63-1.29-2.75l18.65-51.58c.31-.86,1.12-1.38,2.05-1.42.91.01,1.72.6,2.01,1.47l17.47,52.41c.38,1.12-.23,2.34-1.36,2.71-.22.08-.45.11-.68.11Z"/>
        </g>
      </g>
      <path class="cls-6" d="M104.99,17.88h-33.26c-.8-1.73-2.2-3.13-3.96-3.87l-.16-5.18c-.05-1.58-1.34-2.83-2.92-2.83s-2.87,1.26-2.92,2.83l-.15,5.25c-1.69.76-3.04,2.11-3.81,3.79H24.54c-1.89,0-3.42,1.53-3.42,3.42s1.53,3.42,3.42,3.42h33.52c.72,1.32,1.82,2.4,3.15,3.1l-2.33,79.22c-12.5,1.77-17.18,8.72-17.18,8.72h46.11s-4.6-7.01-17.18-8.74l-2.44-79.14c1.39-.7,2.53-1.81,3.27-3.17h33.52c1.89,0,3.42-1.53,3.42-3.42s-1.53-3.42-3.42-3.42Z"/>
      <g>
        <g>
          <path class="cls-5" d="M51.61,72.5H5.5s5.98,16.05,22.98,16.05,23.14-16.05,23.14-16.05Z"/>
          <path class="cls-5" d="M46.5,76.45c-.9,0-1.74-.57-2.04-1.47l-15.52-46.55-16.55,45.77c-.4,1.12-1.63,1.7-2.75,1.29-1.11-.4-1.69-1.63-1.29-2.75L27.01,21.17c.31-.86,1.15-1.38,2.05-1.42.91.01,1.72.6,2.01,1.47l17.47,52.41c.38,1.12-.23,2.34-1.36,2.71-.22.08-.45.11-.68.11Z"/>
        </g>
        <g>
          <path class="cls-5" d="M124.04,72.5h-46.11s5.98,16.05,22.98,16.05,23.14-16.05,23.14-16.05Z"/>
          <path class="cls-5" d="M118.92,76.45c-.9,0-1.74-.57-2.04-1.47l-15.52-46.55-16.55,45.77c-.4,1.12-1.63,1.7-2.75,1.29-1.11-.4-1.69-1.63-1.29-2.75l18.65-51.58c.31-.86,1.12-1.38,2.05-1.42.91.01,1.72.6,2.01,1.47l17.47,52.41c.38,1.12-.23,2.34-1.36,2.71-.22.08-.45.11-.68.11Z"/>
        </g>
      </g>
    </g>
  </g>
</svg>