<?xml version="1.0" encoding="UTF-8"?>
<svg id="Calque_2" xmlns="http://www.w3.org/2000/svg" viewBox="0 0 69.83 69.83">
  <defs>
    <style>
      .cls-1 {
        stroke: #fff;
        stroke-linecap: round;
        stroke-linejoin: round;
        stroke-width: 13px;
      }

      .cls-1, .cls-2 {
        fill: #fff;
      }

      .cls-3 {
        fill: none;
        stroke: #ed7d1a;
        stroke-miterlimit: 10;
        stroke-width: 2.87px;
      }

      .cls-4 {
        fill: #2a3159;
      }
    </style>
  </defs>
  <g id="Calque_3">
    <g>
      <circle class="cls-1" cx="35.24" cy="34.72" r="11.06"/>
      <g>
        <g>
          <path class="cls-1" d="M35.11,6.5h-2.3c-1.97,0-3.56,1.59-3.56,3.56v4.15c0,.71-.37,1.36-.98,1.72l-1.33.78c-.77.46-1.76.34-2.4-.29l-3.21-3.13c-1.4-1.36-3.62-1.34-5,.03l-.78.78"/>
          <path class="cls-1" d="M34.72,6.5h2.3c1.97,0,3.56,1.59,3.56,3.56v4.15c0,.71.37,1.36.98,1.72l1.33.78c.77.46,1.76.34,2.4-.29l3.21-3.13c1.4-1.36,3.62-1.34,5,.03l.78.78"/>
        </g>
        <g>
          <path class="cls-1" d="M34.72,63.33h2.3c1.97,0,3.56-1.59,3.56-3.56v-4.15c0-.71.37-1.36.98-1.72l1.33-.78c.77-.46,1.76-.34,2.4.29l3.21,3.13c1.4,1.36,3.62,1.34,5-.03l.78-.78"/>
          <path class="cls-1" d="M35.11,63.33h-2.3c-1.97,0-3.56-1.59-3.56-3.56v-4.15c0-.71-.37-1.36-.98-1.72l-1.33-.78c-.77-.46-1.76-.34-2.4.29l-3.21,3.13c-1.4,1.36-3.62,1.34-5-.03l-.78-.78-1.44-1.44"/>
        </g>
      </g>
      <g>
        <g>
          <path class="cls-1" d="M6.5,34.72v2.3c0,1.97,1.59,3.56,3.56,3.56h4.15c.71,0,1.36.37,1.72.98l.78,1.33c.46.77.34,1.76-.29,2.4l-3.13,3.21c-1.36,1.4-1.34,3.62.03,5l.78.78"/>
          <path class="cls-1" d="M6.5,35.11v-2.3c0-1.97,1.59-3.56,3.56-3.56h4.15c.71,0,1.36-.37,1.72-.98l.78-1.33c.46-.77.34-1.76-.29-2.4l-3.13-3.21c-1.36-1.4-1.34-3.62.03-5l.78-.78,1.44-1.44"/>
        </g>
        <g>
          <path class="cls-1" d="M63.33,35.11v-2.3c0-1.97-1.59-3.56-3.56-3.56h-4.15c-.71,0-1.36-.37-1.72-.98l-.78-1.33c-.46-.77-.34-1.76.29-2.4l3.13-3.21c1.36-1.4,1.34-3.62-.03-5l-.78-.78-1.44-1.44"/>
          <path class="cls-1" d="M63.33,34.72v2.3c0,1.97-1.59,3.56-3.56,3.56h-4.15c-.71,0-1.36.37-1.72.98l-.78,1.33c-.46.77-.34,1.76.29,2.4l3.13,3.21c1.36,1.4,1.34,3.62-.03,5l-.78.78-1.44,1.44"/>
        </g>
      </g>
    </g>
    <path class="cls-4" d="M59.77,27.23h-4.12s-.79-1.29-.79-1.29l3.13-3.21c2.12-2.17,2.09-5.69-.05-7.83l-2.22-2.22-1.43,1.43,1.43-1.43-.78-.78c-2.15-2.15-5.66-2.17-7.83-.05l-3.19,3.13-1.32-.76v-4.15c0-3.07-2.5-5.58-5.58-5.58h-4.21c-3.07,0-5.58,2.5-5.58,5.58v4.12s-1.29.79-1.29.79l-3.21-3.13c-2.17-2.12-5.69-2.09-7.83.05l-.78.78,1.43,1.43-1.43-1.43-2.22,2.22c-2.15,2.15-2.17,5.66-.05,7.83l3.13,3.18-.76,1.32h-4.15c-3.07,0-5.58,2.5-5.58,5.58v4.21c0,3.07,2.5,5.58,5.58,5.58h4.12s.79,1.29.79,1.29l-3.13,3.21c-2.12,2.17-2.09,5.69.05,7.83l.78.78h0s2.22,2.22,2.22,2.22c2.15,2.15,5.66,2.17,7.83.05l3.18-3.13,1.32.76v4.15c0,3.07,2.5,5.58,5.58,5.58h4.21c3.07,0,5.58-2.5,5.58-5.58v-4.12s1.29-.79,1.29-.79l3.21,3.13c2.17,2.12,5.69,2.09,7.83-.05l.78-.78h0s2.22-2.22,2.22-2.22c2.15-2.15,2.17-5.66.05-7.83l-3.13-3.18.76-1.32h4.15c3.07,0,5.58-2.5,5.58-5.58v-4.21c0-3.07-2.5-5.58-5.58-5.58Z"/>
    <circle class="cls-2" cx="35.24" cy="34.72" r="16.55"/>
    <line class="cls-3" x1="36.75" y1="26.83" x2="32.95" y2="42.35"/>
    <polyline class="cls-3" points="28.09 28.68 22.93 34.6 28.09 40.37"/>
    <polyline class="cls-3" points="42.37 28.68 47.53 34.6 42.37 40.37"/>
  </g>
</svg>