<?xml version="1.0" encoding="UTF-8"?>
<svg id="Calque_2" xmlns="http://www.w3.org/2000/svg" viewBox="0 0 84.42 49.02">
  <defs>
    <style>
      .cls-1 {
        stroke: #fff;
        stroke-linecap: round;
        stroke-linejoin: round;
        stroke-width: 10px;
      }

      .cls-1, .cls-2 {
        fill: #fff;
      }

      .cls-3 {
        fill: #ed7d1a;
      }

      .cls-4 {
        fill: #2a3159;
      }
    </style>
  </defs>
  <g id="Calque_3">
    <g>
      <g>
        <circle class="cls-1" cx="57.05" cy="24.71" r="5.84"/>
        <path class="cls-1" d="M21.83,21.01c-10.97-4.95-16.83,3.8-16.83,3.8,0,0,6.93,9.57,17,3.22"/>
        <g>
          <path class="cls-1" d="M23.15,34.21s-2.48-9.74,0-19.47l24.09-5.28s18.81-4.13,32.18,15.02c0,0-11.55,20.3-31.85,15.51-18.52-4.37-24.42-5.78-24.42-5.78Z"/>
          <path class="cls-1" d="M23.15,14.74c-.58-.33-8-7.84-8-7.84l16.42-1.9,6.77,6.27"/>
          <path class="cls-1" d="M23.15,34.29c-.58.33-8,7.84-8,7.84l16.42,1.9,6.77-6.27"/>
        </g>
      </g>
      <g>
        <path class="cls-3" d="M22.62,20.64c-12.01-5.42-18.43,4.16-18.43,4.16,0,0,7.59,10.48,18.61,3.52"/>
        <path class="cls-4" d="M47.24,9.46l-8.86,1.94-6.81-6.4-16.42,1.9s5.28,5.32,7.98,7.94c-2.36,9.39-.13,18.76.02,19.34-2.64,2.54-8,7.95-8,7.95l16.42,1.9,6.66-6.25c2.68.63,5.78,1.36,9.35,2.21,20.3,4.79,31.85-15.51,31.85-15.51-13.37-19.14-32.18-15.02-32.18-15.02Z"/>
      </g>
      <circle class="cls-2" cx="57.05" cy="24.71" r="5.84"/>
    </g>
  </g>
</svg>