<?xml version="1.0" encoding="UTF-8"?>
<svg id="Calque_2" xmlns="http://www.w3.org/2000/svg" xmlns:xlink="http://www.w3.org/1999/xlink" viewBox="0 0 57.22 55.87">
  <defs>
    <style>
      .cls-1 {
        stroke: #fff;
        stroke-miterlimit: 10;
        stroke-width: 5.76px;
      }

      .cls-1, .cls-2 {
        fill: #fff;
      }

      .cls-3 {
        filter: url(#drop-shadow-1);
      }

      .cls-4 {
        fill: #2a3159;
      }

      .cls-5 {
        fill: none;
        stroke: #ed7d1a;
        stroke-linecap: round;
        stroke-linejoin: round;
        stroke-width: 2.88px;
      }
    </style>
    <filter id="drop-shadow-1" x="-8.5" y="-8.41" width="75" height="73" filterUnits="userSpaceOnUse">
      <feOffset dx="0" dy="0"/>
      <feGaussianBlur result="blur" stdDeviation="2.55"/>
      <feFlood flood-color="#000" flood-opacity=".25"/>
      <feComposite in2="blur" operator="in"/>
      <feComposite in="SourceGraphic"/>
    </filter>
  </defs>
  <g id="Calque_3">
    <g class="cls-3">
      <path class="cls-1" d="M54.31,50.85s.53-5.35-7.37-9.98c-2.76-1.62-5.93-2.55-8.88-3.08v-2.2c2.32-2.26,2.49-4.81,2.49-4.81,4.75-6.36,1.84-10.57,1.84-10.57,2.14-10.69-4.22-14.32-4.22-14.32,1.6-1.96.65-2.85.65-2.85,0,0-5.94.77-11.64.12-5.68-.65-7.25,4.75-7.25,4.75,0,0-3.62-.06-4.69,4.34-1.07,4.4.24,8.2.24,8.2,0,0-1.66.36-.95,4.75.71,4.4,2.67,5.58,2.67,5.58.3,2.38,2.38,4.75,2.38,4.75v2.26c-2.96.53-6.14,1.47-8.91,3.09-7.9,4.63-7.37,9.98-7.37,9.98,0,0-.48,2.14,2.44,2.14h46.13c2.91,0,2.44-2.14,2.44-2.14Z"/>
      <path class="cls-1" d="M6.9,31.94c-.45,0-.89-.21-1.17-.6-6.42-8.91,0-16.74.07-16.82.51-.61,1.42-.69,2.03-.18.61.51.69,1.42.18,2.03-.22.26-5.02,6.24.06,13.28.47.64.32,1.54-.33,2.01-.25.18-.55.27-.84.27Z"/>
      <path class="cls-1" d="M11.18,27.97c-.48,0-.95-.24-1.22-.68-2.88-4.61-.03-8.31.09-8.47.49-.62,1.4-.73,2.02-.24.62.49.73,1.39.25,2.01-.18.24-1.67,2.37.08,5.16.42.67.22,1.56-.46,1.98-.24.15-.5.22-.76.22Z"/>
      <path class="cls-1" d="M19.95,28.81s-.95-.3-1.54-2.02-1.25-4.69-.36-4.75l.89-.06s.18-3.86,2.14-5.82c1.96-1.96,4.34-1.9,6.71-.83s6.65,2.14,9.39,1.19c0,0,2.38.95,1.54,5.41,0,0,1.54,0,1.37,1.31s-.89,5.41-2.32,5.41c0,0-1.84,8.73-8.44,8.73-8.14,0-9.39-8.55-9.39-8.55Z"/>
      <path class="cls-1" d="M21.14,40.75s1.07-.48,1.78-1.9c0,0,5.64,4.1,11.82,0,0,0,.3,1.25,1.66,1.84,0,0-2.73,3.86-7.48,3.86s-7.78-3.8-7.78-3.8Z"/>
      <path class="cls-4" d="M54.31,50.85s.53-5.35-7.37-9.98c-2.76-1.62-5.93-2.55-8.88-3.08v-2.2c2.32-2.26,2.49-4.81,2.49-4.81,4.75-6.36,1.84-10.57,1.84-10.57,2.14-10.69-4.22-14.32-4.22-14.32,1.6-1.96.65-2.85.65-2.85,0,0-5.94.77-11.64.12-5.68-.65-7.25,4.75-7.25,4.75,0,0-3.62-.06-4.69,4.34-1.07,4.4.24,8.2.24,8.2,0,0-1.66.36-.95,4.75.71,4.4,2.67,5.58,2.67,5.58.3,2.38,2.38,4.75,2.38,4.75v2.26c-2.96.53-6.14,1.47-8.91,3.09-7.9,4.63-7.37,9.98-7.37,9.98,0,0-.48,2.14,2.44,2.14h46.13c2.91,0,2.44-2.14,2.44-2.14Z"/>
      <path class="cls-5" d="M6.9,15.45s-5.84,6.95,0,15.05"/>
      <path class="cls-5" d="M11.18,19.72s-2.38,3.01,0,6.81"/>
      <path class="cls-2" d="M19.95,28.81s-.95-.3-1.54-2.02-1.25-4.69-.36-4.75l.89-.06s.18-3.86,2.14-5.82c1.96-1.96,4.34-1.9,6.71-.83s6.65,2.14,9.39,1.19c0,0,2.38.95,1.54,5.41,0,0,1.54,0,1.37,1.31s-.89,5.41-2.32,5.41c0,0-1.84,8.73-8.44,8.73-8.14,0-9.39-8.55-9.39-8.55Z"/>
      <path class="cls-2" d="M21.14,40.75s1.07-.48,1.78-1.9c0,0,5.64,4.1,11.82,0,0,0,.3,1.25,1.66,1.84,0,0-2.73,3.86-7.48,3.86s-7.78-3.8-7.78-3.8Z"/>
    </g>
  </g>
</svg>