<?xml version="1.0" encoding="UTF-8"?>
<svg id="Calque_2" data-name="Calque 2" xmlns="http://www.w3.org/2000/svg" viewBox="0 0 52.55 52.58">
  <defs>
    <style>
      .cls-1 {
        stroke: #2a3159;
        stroke-miterlimit: 10;
        stroke-width: 3.6px;
      }

      .cls-1, .cls-2, .cls-3 {
        fill: none;
      }

      .cls-4 {
        fill: #ed7d1a;
      }

      .cls-5 {
        fill: #fff;
      }

      .cls-2 {
        stroke-linecap: round;
        stroke-width: 7.92px;
      }

      .cls-2, .cls-3 {
        stroke: #fff;
        stroke-linejoin: round;
      }

      .cls-3 {
        stroke-linecap: square;
        stroke-width: 5.04px;
      }
    </style>
  </defs>
  <g id="Calque_1-2" data-name="Calque 1">
    <g>
      <path class="cls-5" d="M44.01,28.59c0,11.06-8.97,20.03-20.03,20.03S3.96,39.65,3.96,28.59,12.93,8.57,23.99,8.57s20.03,8.97,20.03,20.03"/>
      <circle class="cls-2" cx="23.99" cy="28.59" r="20.03"/>
      <path class="cls-1" d="M43.43,28.59c0,10.74-8.71,19.44-19.45,19.44S4.54,39.33,4.54,28.59,13.25,9.15,23.99,9.15s19.45,8.7,19.45,19.44Z"/>
      <path class="cls-1" d="M30.83,28.59c0,3.78-3.06,6.84-6.84,6.84s-6.84-3.06-6.84-6.84,3.06-6.84,6.84-6.84,6.84,3.06,6.84,6.84Z"/>
      <circle class="cls-1" cx="23.99" cy="28.59" r="13.32"/>
      <polygon class="cls-5" points="40.66 18.47 50.03 9.09 43.35 9.19 40.1 12.44 40.1 12.44 43.34 9.2 43.44 2.52 34.07 11.89 34.01 15.49 25.59 23.91 23.08 19.84 23.08 29.5 32.74 29.5 28.64 26.97 37.09 18.52 40.66 18.47"/>
      <polygon class="cls-3" points="40.66 18.47 50.03 9.09 43.35 9.19 40.1 12.44 40.1 12.44 43.34 9.2 43.44 2.52 34.07 11.89 34.01 15.49 25.59 23.91 23.08 19.84 23.08 29.5 32.74 29.5 28.64 26.97 37.09 18.52 40.66 18.47"/>
      <polygon class="cls-4" points="40.66 18.47 50.03 9.09 43.35 9.19 40.1 12.44 40.1 12.44 43.34 9.2 43.44 2.52 34.07 11.89 34.01 15.49 25.59 23.91 23.08 19.84 23.08 29.5 32.74 29.5 28.64 26.97 37.09 18.52 40.66 18.47"/>
    </g>
  </g>
</svg>