<?xml version="1.0" encoding="UTF-8"?>
<svg id="Calque_2" data-name="Calque 2" xmlns="http://www.w3.org/2000/svg" viewBox="0 0 127.19 136.36">
  <defs>
    <style>
      .cls-1 {
        fill: #2a3159;
      }

      .cls-1, .cls-2, .cls-3 {
        stroke-width: 0px;
      }

      .cls-2 {
        fill: #ed7d1a;
      }

      .cls-3 {
        fill: #fff;
      }
    </style>
  </defs>
  <g id="Calque_3" data-name="Calque 3">
    <g>
      <circle class="cls-2" cx="63.59" cy="72.77" r="63.59"/>
      <g>
        <path class="cls-3" d="M24.37,83.8c.2.5.13.72-.15,1.04l-7.53,9.3c-.06.08.02.12.07.1l9.71-3.79c.29-.11.48-.03.6.29l.75,1.91c.11.29.08.52-.24.64l-15.42,6.02c-.42.17-.62-.03-.75-.35l-.53-1.35c-.17-.42-.21-.62.08-.98l7.31-9.09c.13-.14.08-.27-.14-.19l-9.39,3.67c-.27.1-.43-.01-.57-.36l-.75-1.91c-.12-.32-.09-.55.18-.65l15.37-6c.43-.17.7-.09.88.36l.53,1.35Z"/>
        <path class="cls-3" d="M24.72,112.36c.16.2.16.46-.08.66l-1.44,1.21c-.26.22-.48.22-.69-.02l-6.23-7.38c-.2-.24-.2-.5.04-.7l12.7-10.71c.24-.2.5-.16.7.08l6.11,7.25c.17.2.23.44-.04.66l-1.42,1.19c-.24.2-.5.2-.69-.02l-4.09-4.86c-.24-.28-.38-.28-.58-.11l-2.61,2.2c-.28.24-.3.4-.08.66l3.38,4.01c.22.26.16.46-.1.68l-1.39,1.18c-.24.2-.44.23-.66-.04l-3.4-4.03c-.22-.26-.38-.23-.6-.05l-3.01,2.53c-.26.22-.23.38,0,.67l4.15,4.92Z"/>
        <path class="cls-3" d="M36.92,124.14c-.06.2-.26.54-.69.26l-1.92-1.29c-.24-.16-.34-.36-.27-.63l1.04-2.73c.09-.28.1-.41-.09-.54l-3.5-2.35c-.26-.17-.36-.03-.54.09-.41.41-1.71,1.63-2.15,2.02-.19.18-.47.13-.66,0l-1.82-1.22c-.45-.3-.33-.53-.08-.74l12.71-11.48c.21-.16.44-.19.72,0l2.7,1.81c.21.14.4.27.24.61l-5.7,16.18ZM37.72,112.71l1.26-3.1c.06-.13-.05-.24-.17-.11l-2.34,2.31-3,2.89c-.13.15-.17.2.02.32l2.46,1.65c.14.09.24.1.3-.14l1.46-3.82Z"/>
        <path class="cls-3" d="M55.91,115.79l-3.21-.99c-.33-.1-.48,0-.54.22l-4.13,13.31c-.1.33-.3.39-.62.28l-2.1-.65c-.3-.09-.46-.26-.36-.56l4.13-13.31c.08-.25.06-.4-.29-.51l-3.05-.94c-.33-.1-.42-.28-.31-.63l.54-1.74c.09-.3.28-.42.61-.32l10.18,3.14c.27.08.36.29.27.56l-.55,1.77c-.09.3-.23.47-.56.36Z"/>
        <path class="cls-3" d="M58.02,125.89l.15-7.89c.06-3.05,2.43-5.03,5.62-4.97,1.96.04,3.83.61,5.22,2.69.17.23.19.52-.16.74l-1.56,1.14c-.32.16-.63.02-.77-.24-.61-.92-1.57-1.45-2.68-1.48-1.59-.03-2.44,1.04-2.46,2.29l-.15,7.78c-.02,1.2.81,2.21,2.41,2.24,1.05.02,2.03-.56,2.67-1.29.2-.2.38-.51.75-.27l1.69,1.09c.25.15.36.43.21.69-1.35,1.97-3.3,2.7-5.44,2.66-3.33-.06-5.57-2.07-5.52-5.18Z"/>
        <path class="cls-3" d="M76.51,111.22c3.26-1.04,5.76.14,6.73,3.21.61,1.9,0,3.95-.88,5.49-.08.21-.06.29.08.42.04.05,2.35,2.57,4.84,5.25.3.29.16.61-.19.72l-2.06.66c-.73.23-.95.03-1.22-.27l-4.29-4.82c-.07-.13-.21-.2-.43-.13l-1.79.57c-.16.05-.22.16-.15.38l1.83,5.73c.1.33-.05.49-.38.6l-2.06.66c-.3.1-.52.05-.62-.25l-5.06-15.88c-.1-.3-.04-.5.29-.6l5.38-1.71ZM79.17,118.74c.16-.05.41-.22.49-.34.65-.96.72-2.14.51-2.82-.42-1.33-1.48-2.1-3.05-1.6l-2.09.67c-.33.1-.37.24-.28.54l1.31,4.13c.08.24.18.36.5.26l2.61-.83Z"/>
        <path class="cls-3" d="M101.61,116.4c.16.13.41.44-.01.74l-1.9,1.32c-.23.16-.46.18-.68.02l-2.16-1.97c-.23-.19-.34-.25-.53-.12l-3.46,2.4c-.26.18-.16.32-.12.53.23.53.89,2.19,1.1,2.74.1.24-.05.48-.23.61l-1.8,1.25c-.44.31-.61.11-.72-.19l-6.05-16.02c-.08-.26-.02-.47.26-.67l2.67-1.85c.21-.15.4-.28.66,0l12.98,11.21ZM91.26,111.48l-2.43-2.3c-.1-.1-.24-.04-.16.11l1.3,3.02,1.6,3.85c.09.18.12.23.31.1l2.43-1.69c.14-.1.18-.19-.02-.33l-3.02-2.76Z"/>
        <path class="cls-3" d="M107.49,110.1c.26.22.29.46.07.72l-1.38,1.7c-.2.24-.46.29-.7.09l-12.88-10.49c-.24-.2-.27-.44-.05-.7l5.93-7.29c.16-.2.38-.28.64-.07l1.44,1.17c.24.2.29.46.11.68l-3.97,4.88c-.2.24-.14.4.04.54l2.76,2.25c.24.2.35.21.54-.03l3.29-4.04c.22-.26.42-.25.69-.03l1.44,1.17c.24.2.33.41.11.68l-3.27,4.02c-.2.24-.16.38.12.61l5.08,4.14Z"/>
        <path class="cls-3" d="M106.2,82.46l-1.14,3.16c-.12.32-.02.48.19.55l13.1,4.75c.32.12.37.32.25.64l-.74,2.06c-.11.29-.28.44-.58.34l-13.1-4.75c-.24-.09-.39-.08-.52.27l-1.08,3c-.12.32-.3.41-.65.28l-1.72-.62c-.3-.11-.41-.3-.29-.62l3.61-10.02c.1-.27.31-.34.57-.25l1.74.63c.29.11.45.25.34.58Z"/>
      </g>
      <path class="cls-3" d="M109.11,2.22h0c-.85-1.12-2.38-1.47-3.63-.83-1.25.64-1.86,2.09-1.45,3.44.65,2.1,1.5,6.32-.05,11.04-.77,2.35-1.79,4.16-2.84,5.56,1.55-12.16-5.33-18.52-8.8-20.9-1.15-.79-2.65-.67-3.65.3-1,.97-1.19,2.46-.44,3.64.56.89,1.32,2.25,2,4-2.37-1.27-4.51-1.76-5.92-1.95-1.36-.18-2.64.59-3.11,1.89-.47,1.3.02,2.71,1.19,3.45,5.57,3.5,8.09,7.7,9.02,9.61-1.06,4.94-3.77,7.11-8.01,9.11-.92.43-1.83.9-2.7,1.36.17-.54.34-1.13.52-1.75,1.83-6.28-.11-11.32-1.42-13.76-.65-1.21-2.03-1.79-3.35-1.41-1.32.38-2.18,1.6-2.1,2.97.07,1.2.1,3.23-.18,6.06-.29,2.99-1.36,4.61-2.7,6.67-.74,1.14-1.59,2.43-2.3,4.01-.81,1.79-1.26,3.39-1.51,4.67-.93.09-1.76.28-2.36.54-.8.36-1.45.44-1.71.45-.17-.02-.68-.1-1.47-.45-.6-.27-1.43-.45-2.36-.54-.25-1.28-.7-2.88-1.51-4.67-.71-1.58-1.56-2.87-2.3-4.01-1.34-2.05-2.41-3.68-2.7-6.67-.28-2.83-.25-4.86-.18-6.06.08-1.37-.78-2.59-2.1-2.97-1.32-.38-2.69.2-3.35,1.41-1.32,2.44-3.25,7.48-1.42,13.76.18.62.36,1.21.52,1.75-.87-.47-1.78-.93-2.7-1.36-4.25-2-6.95-4.17-8.01-9.11.92-1.91,3.44-6.11,9.02-9.61,1.17-.73,1.65-2.15,1.19-3.44-.47-1.29-1.74-2.07-3.11-1.89-1.41.19-3.56.68-5.92,1.95.68-1.75,1.44-3.11,2.01-4,.74-1.18.56-2.67-.44-3.64-1-.96-2.5-1.09-3.65-.3-3.47,2.38-10.35,8.74-8.8,20.9-1.05-1.4-2.07-3.22-2.84-5.56-1.56-4.72-.7-8.94-.05-11.04.42-1.35-.19-2.79-1.45-3.43-1.26-.64-2.78-.29-3.63.83-2.13,2.81-5.27,9.1-2.44,19.55,1.58,5.85,6.33,10.59,14.13,14.12-.31.36-.52.81-.58,1.29-.03.26-.8,6.38,3.32,12.8,3.39,5.29,7.01,6.06,9.92,6.68.74.16,1.44.31,2.06.52,1.12.39,2.06,1.03,2.78,1.91.07,1.59.04,4.27-.49,7.64-.76,4.81-1.69,8.55-2.51,11.86-1.64,6.61-2.82,11.39-.28,17.05,3.15,7.03,13.97,12.09,17.52,13.75.35.16.6.28.71.34.38.22.8.32,1.22.32.43,0,.86-.11,1.25-.34,0,0,0,0,0,0,.14-.07.37-.18.68-.32,3.55-1.66,14.37-6.72,17.53-13.76,2.54-5.67,1.36-10.44-.28-17.05-.82-3.31-1.75-7.05-2.51-11.86-.54-3.37-.56-6.05-.49-7.64.72-.88,1.66-1.52,2.78-1.91.63-.22,1.32-.36,2.06-.52,2.91-.62,6.53-1.39,9.92-6.68,4.12-6.42,3.36-12.54,3.32-12.8-.06-.48-.26-.92-.57-1.28,7.82-3.54,12.57-8.28,14.15-14.13,2.83-10.46-.32-16.74-2.44-19.55Z"/>
      <path class="cls-1" d="M107.13,3.71c-.28-.37-.87-.07-.74.38.78,2.53,1.68,7.24-.07,12.54-2.96,9-9.34,11.32-9.34,11.32,5.45-15.4-2.4-22.87-6.06-25.39-.37-.26-.83.19-.59.57,1.35,2.13,3.49,6.3,3.93,11.79-3.77-4.46-7.97-5.66-10.27-5.97-.45-.06-.66.53-.27.77,6.86,4.31,9.53,9.59,10.28,11.41-1.21,6.99-5.32,9.67-9.54,11.65-4.55,2.14-8.73,5.03-8.8,5.07.06-.04.97-.79,3.19-8.39,1.57-5.4-.05-9.72-1.23-11.89-.21-.4-.82-.22-.79.23.08,1.36.1,3.51-.19,6.45-.54,5.48-3.37,7.36-5.21,11.45-1.25,2.79-1.53,4.99-1.58,6.1-1.61-.12-2.97.11-3.54.36-1.3.58-2.38.66-2.75.67-.29-.01-1.15-.09-2.45-.67-.57-.25-1.94-.48-3.54-.36-.05-1.12-.32-3.32-1.58-6.1-1.84-4.09-4.67-5.97-5.21-11.45-.29-2.94-.27-5.09-.19-6.45.03-.45-.57-.63-.79-.23-1.17,2.17-2.8,6.49-1.23,11.89,2.22,7.6,3.13,8.35,3.19,8.39-.06-.04-4.25-2.93-8.8-5.07-4.22-1.99-8.33-4.67-9.54-11.65.76-1.82,3.42-7.11,10.28-11.41.38-.24.17-.83-.27-.77-2.3.31-6.51,1.5-10.27,5.97.45-5.5,2.58-9.66,3.93-11.79.24-.38-.22-.83-.59-.57-3.66,2.52-11.51,9.99-6.06,25.39,0,0-6.38-2.32-9.34-11.32-1.75-5.3-.85-10.01-.07-12.54.14-.45-.45-.75-.74-.38-1.87,2.48-4.58,7.99-2.03,17.41,2.65,9.79,15.36,13.61,17.87,14.5,2.33.83,12.2,4.53,15.44,8.75-.12.12-.23.23-.34.35-.01,0-.03,0-.04,0,0,0,.01.02.02.02-.58.66-.89,1.4-1.19,2.28l-.03.03c-.65-.72-2.58-3.61-4.43-4.94-2.92-2.09-9.47-3.67-13.69-4.61,0,0-.72,5.4,2.95,11.13,3.67,5.73,7.35,5.04,10.7,6.2,2,.69,3.44,1.93,4.41,3.38.12,1.71.17,4.83-.48,8.91-2.32,14.65-6.27,20.16-2.97,27.51,3.16,7.05,16.12,12.34,17.19,12.95h0c1.07-.61,14.03-5.9,17.19-12.95,3.3-7.35-.65-12.86-2.97-27.51-.65-4.08-.6-7.19-.48-8.91.97-1.45,2.41-2.69,4.41-3.38,3.35-1.15,7.02-.47,10.7-6.2,3.67-5.73,2.95-11.13,2.95-11.13-4.21.94-10.77,2.52-13.69,4.61-1.85,1.33-3.77,4.2-4.43,4.91-.36-1.05-.73-1.9-1.55-2.66,3.24-4.22,13.11-7.92,15.44-8.75,2.51-.9,15.22-4.71,17.87-14.5,2.55-9.42-.15-14.93-2.03-17.41ZM67.92,54.95c-.25,3.28,1.12,4.54,1.12,4.54,0-2.2,2.2-3.96,2.2-3.96,0,0,.25.14,1.66.11,1.73-.04,3.17-1.05,3.17-1.05.18,1.6-.34,4.19-1.52,6.27-.77,1.36-2.55,3.11-3.15,5.86-.53,2.41-1.85,3.78-1.85,3.78-.78-2.18-3.59-2.72-4.46-2.84,0,0,2.44-2.14,2.87-2.87.64-1.06.97-2.09-.47-3.42-.99-.92-2.84-1.04-3.68-1.04-.64-.02-2.78.01-3.89,1.04-1.44,1.33-1.11,2.36-.47,3.42.44.73,2.87,2.87,2.87,2.87-.87.12-3.69.66-4.46,2.84,0,0-1.32-1.38-1.85-3.78-.6-2.74-2.38-4.5-3.15-5.86-1.17-2.08-1.7-4.67-1.52-6.27,0,0,1.44,1.01,3.17,1.05,1.41.03,1.66-.11,1.66-.11,0,0,2.2,1.77,2.2,3.96,0,0,1.37-1.26,1.12-4.54-.25-3.28-3.57-4.25-3.57-4.25,0,0,1.66,1.84,1.62,3.67,0,0-3.1-4.68-6.41-1.69,0-.16.01-.32.02-.47.11-1.01.73-3.32,4.19-3.56,4.61-.32,8.36,6.92,8.36,6.92,0,0,3.75-7.25,8.36-6.92,3.46.24,4.09,2.55,4.19,3.56,0,.15.02.31.02.47-3.31-2.99-6.41,1.69-6.41,1.69-.04-1.84,1.62-3.67,1.62-3.67,0,0-3.31.97-3.57,4.25ZM66.73,73.3c-.96.96-2.2,1.13-2.79,1.15h-.13s-.02,0-.04,0c-.11,0-.17,0-.17,0h-.28c-.63-.05-1.75-.26-2.63-1.14-1.31-1.31-1.19-2-.62-2.55.55-.54,2.09-1.22,3.71-1.25,1.57.06,3.05.72,3.59,1.25.57.55.69,1.24-.62,2.55ZM50.45,90.18c-2.78-7.07,1.39-18.09,1.39-18.09,0,0,.35,1.01.71,1.84.36.83,1.17,2.18,1.17,2.18,0,0-.64,13.46,4.25,21.13,0,0-4.74,0-7.52-7.07ZM63.71,97.62c-6.85-5.83-7.54-19.33-7.54-19.33,0,0,.75,1.02,1.28,1.43.53.41,1.35,1.02,1.35,1.02,1.28,8.23,4.9,10.65,4.9,10.65,0,0,3.63-2.37,4.91-10.6,0,0,.83-.6,1.35-1.02.53-.41,1.28-1.43,1.28-1.43,0,0-.69,13.45-7.54,19.28ZM76.96,90.22c-2.78,7.07-7.52,7.07-7.52,7.07,4.89-7.67,4.25-21.13,4.25-21.13,0,0,.8-1.35,1.17-2.18.36-.83.71-1.84.71-1.84,0,0,4.17,11.02,1.39,18.09Z"/>
    </g>
  </g>
</svg>