<?xml version="1.0" encoding="UTF-8"?>
<svg id="Calque_2" data-name="Calque 2" xmlns="http://www.w3.org/2000/svg" viewBox="0 0 117.17 68.04">
  <defs>
    <style>
      .cls-1 {
        fill: #2a3159;
      }

      .cls-1, .cls-2, .cls-3 {
        stroke-width: 0px;
      }

      .cls-4 {
        stroke: #fff;
        stroke-linecap: round;
        stroke-linejoin: round;
        stroke-width: 13.88px;
      }

      .cls-4, .cls-3 {
        fill: #fff;
      }

      .cls-2 {
        fill: #ed7d1a;
      }
    </style>
  </defs>
  <g id="Calque_3" data-name="Calque 3">
    <g>
      <g>
        <circle class="cls-4" cx="79.18" cy="34.29" r="8.11"/>
        <path class="cls-4" d="M30.3,29.15c-15.23-6.87-23.36,5.27-23.36,5.27,0,0,9.62,13.28,23.59,4.47"/>
        <g>
          <path class="cls-4" d="M32.13,47.48s-3.44-13.51,0-27.02l33.44-7.33s26.11-5.73,44.66,20.84c0,0-16.03,28.17-44.2,21.53-25.71-6.06-33.89-8.02-33.89-8.02Z"/>
          <path class="cls-4" d="M32.13,20.45c-.8-.46-11.11-10.88-11.11-10.88l22.79-2.63,9.39,8.7"/>
          <path class="cls-4" d="M32.13,47.59c-.8.46-11.11,10.88-11.11,10.88l22.79,2.63,9.39-8.7"/>
        </g>
      </g>
      <g>
        <path class="cls-2" d="M31.4,28.65c-16.67-7.52-25.58,5.77-25.58,5.77,0,0,10.53,14.54,25.83,4.89"/>
        <path class="cls-1" d="M65.57,13.12l-12.3,2.7-9.46-8.88-22.79,2.63s7.32,7.39,11.07,11.02c-3.27,13.04-.18,26.03.02,26.85-3.66,3.52-11.1,11.03-11.1,11.03l22.79,2.63,9.24-8.67c3.72.88,8.02,1.89,12.98,3.06,28.17,6.64,44.2-21.53,44.2-21.53-18.55-26.57-44.66-20.84-44.66-20.84Z"/>
      </g>
      <circle class="cls-3" cx="79.18" cy="34.29" r="8.11"/>
    </g>
  </g>
</svg>